<?xml version="1.0" standalone="no"?>
<!DOCTYPE svg PUBLIC "-//W3C//DTD SVG 20010904//EN"
 "http://www.w3.org/TR/2001/REC-SVG-20010904/DTD/svg10.dtd">
<svg version="1.0" xmlns="http://www.w3.org/2000/svg"
 width="260.000000pt" height="280.000000pt" viewBox="0 0 260.000000 280.000000"
 preserveAspectRatio="xMidYMid meet">
<metadata>
Created by potrace 1.16, written by Peter Selinger 2001-2019
</metadata>
<g transform="translate(0.000000,280.000000) scale(0.100000,-0.100000)"
fill="#000000" stroke="none">
<path d="M1009 1846 c-166 -45 -239 -246 -139 -385 32 -43 98 -87 148 -97 18
-4 32 -8 32 -11 0 -2 -25 -47 -55 -99 -30 -53 -55 -100 -55 -105 0 -5 35 -9
78 -9 l77 0 107 188 c59 103 112 206 118 230 13 50 66 113 114 136 66 31 173
17 227 -30 13 -12 22 -7 64 36 49 49 49 49 29 71 -29 32 -109 69 -173 80 -69
12 -154 0 -215 -32 -84 -43 -162 -139 -185 -226 -35 -131 -210 -119 -211 15 0
96 106 138 175 69 l33 -33 12 25 c6 13 25 42 42 63 35 45 32 52 -39 90 -60 32
-124 41 -184 24z"/>
<path d="M1262 1396 c-23 -41 -42 -77 -42 -80 0 -4 21 -30 47 -57 85 -91 198
-130 315 -109 66 12 145 49 175 82 16 18 14 21 -32 68 -43 44 -51 48 -65 35
-50 -45 -156 -58 -225 -26 -49 22 -104 82 -112 122 -3 16 -9 31 -13 34 -3 2
-25 -29 -48 -69z"/>
</g>
</svg>
